<svg version="1.1" id="Layer_1" xmlns="http://www.w3.org/2000/svg" xmlns:xlink="http://www.w3.org/1999/xlink" x="0px" y="0px"
	 width="100%" viewBox="0 0 500 500" enable-background="new 0 0 500 500" xml:space="preserve">
<path fill="#313640" opacity="1.000000" stroke="none" 
	d="
M298.587158,243.466934 
	C300.496155,245.414627 302.523346,246.429489 305.001099,247.325043 
	C306.157196,247.204544 306.718262,247.956406 307.767090,248.019836 
	C309.754883,249.094894 311.605835,248.661453 313.762939,248.396057 
	C314.390472,247.384476 315.244110,247.161041 315.795288,246.616684 
	C315.188354,246.019760 314.350616,246.341248 313.337311,246.071259 
	C304.466125,244.702469 298.278442,240.256546 294.885681,232.170898 
	C292.079163,225.482361 292.438538,219.062866 297.183350,213.413361 
	C302.010529,207.665817 308.383148,205.824966 315.653015,207.451736 
	C331.053894,210.898026 339.290375,225.313080 335.540771,242.240845 
	C331.130341,262.151947 322.347473,280.164307 311.505829,297.278137 
	C310.657959,298.616577 309.230377,299.706573 309.249542,302.070221 
	C317.741516,302.070221 326.159973,302.064026 334.578430,302.076630 
	C335.907928,302.078613 337.275452,301.984833 338.557861,302.255371 
	C340.493713,302.663757 341.075287,304.129456 341.048950,306.020660 
	C341.021484,307.993500 340.260834,309.236450 338.217255,309.398712 
	C336.891510,309.503937 335.554565,309.490784 334.222626,309.490875 
	C275.568939,309.494720 216.915268,309.494385 158.261581,309.492798 
	C157.095398,309.492767 155.929230,309.466248 154.763031,309.462708 
	C152.485809,309.455841 151.461700,308.251556 151.412704,306.042755 
	C151.360153,303.673340 152.296722,302.186737 154.833969,302.102905 
	C156.165649,302.058899 157.499466,302.071289 158.832306,302.071228 
	C195.324234,302.069763 231.816269,302.030029 268.307861,302.141113 
	C271.426483,302.150574 273.607635,301.348175 275.569855,298.916077 
	C288.422699,282.985260 297.218597,265.446686 297.419647,244.093918 
	C297.518433,243.604919 297.818298,243.509735 298.587158,243.466934 
z"/>
<path fill="#313640" opacity="1.000000" stroke="none" 
	d="
M194.891052,249.938766 
	C198.885635,244.428284 203.030914,239.713196 210.218475,239.702164 
	C215.463425,239.694122 217.087097,241.804504 215.854080,246.936890 
	C215.622772,247.899673 215.358307,248.887772 214.906586,249.759186 
	C210.573700,258.118195 209.120331,266.780243 210.689514,276.215210 
	C211.647583,281.975616 208.769714,285.662323 204.083359,287.022797 
	C198.503159,288.642761 193.759659,286.871979 190.711182,282.126465 
	C186.545517,275.641937 187.430054,268.795685 189.353195,261.957977 
	C190.520096,257.808990 192.284897,253.861221 194.891052,249.938766 
z"/>
<path fill="#333842" opacity="1.000000" stroke="none" 
	d="
M283.080811,249.617859 
	C283.107819,251.504349 283.244019,253.020508 283.054321,254.494751 
	C282.179840,261.291992 276.575378,264.462769 270.312500,261.776672 
	C267.317261,260.492035 264.819794,258.562683 263.242249,255.701309 
	C259.582520,249.063095 254.185074,244.345261 247.627548,240.692230 
	C244.654816,239.036224 240.682693,237.322800 241.369339,233.166702 
	C242.122330,228.609161 246.577271,227.937027 250.339584,227.338348 
	C265.600494,224.909958 279.608978,234.360031 283.080811,249.617859 
z"/>
<path fill="#373C45" opacity="1.000000" stroke="none" 
	d="
M257.713013,276.847107 
	C249.478210,286.927704 237.478806,290.911133 226.845596,287.232452 
	C225.728027,286.845825 223.744720,286.976013 224.154419,285.035828 
	C224.496414,283.416138 226.043365,284.263580 227.108383,284.291046 
	C233.846741,284.464844 237.369904,282.225189 237.948273,277.380310 
	C238.666672,271.362366 234.876678,266.559753 228.583542,265.498138 
	C225.657043,265.004456 222.098877,265.074738 221.226196,261.494995 
	C220.287277,257.643524 223.247849,255.389648 226.001892,253.480698 
	C230.785950,250.164703 236.133163,248.481873 241.999496,248.886841 
	C244.373703,249.050735 246.818817,249.692093 247.847900,252.052979 
	C248.999359,254.694626 247.613678,256.907166 245.645004,258.674957 
	C242.172424,261.793182 239.420319,265.105133 240.641251,270.308594 
	C242.543747,278.416748 249.294434,280.687103 255.620422,275.281616 
	C256.686737,274.370453 257.209442,272.663696 259.117859,272.728668 
	C260.228973,274.506805 258.296844,275.312073 257.713013,276.847107 
z"/>
<path fill="#333842" opacity="1.000000" stroke="none" 
	d="
M262.140259,211.410431 
	C256.949554,209.815460 252.025375,209.086334 247.030701,209.709671 
	C243.451584,210.156357 242.566788,209.334030 244.159561,205.861084 
	C248.376297,196.666580 255.643356,191.854156 263.893219,193.095490 
	C271.285004,194.207687 277.591644,201.679916 278.916351,210.901688 
	C278.963409,211.229172 278.977661,211.562927 278.985352,211.894272 
	C279.046265,214.518845 280.335602,218.115326 278.388519,219.481476 
	C276.289032,220.954590 274.446655,217.393463 272.364014,216.260025 
	C269.156372,214.514313 266.033264,212.645966 262.140259,211.410431 
z"/>
<path fill="#333842" opacity="1.000000" stroke="none" 
	d="
M197.560623,225.199890 
	C193.655365,229.583389 188.530533,232.534027 185.299225,237.529495 
	C182.849945,241.315979 180.465408,245.173538 179.404373,249.524048 
	C178.362503,253.796112 176.674896,252.612549 174.450882,250.735687 
	C167.329956,244.726303 166.087845,234.504150 171.578720,226.957214 
	C176.831711,219.737167 186.898514,217.879333 194.698395,222.731979 
	C195.671387,223.337326 196.502808,224.170227 197.560623,225.199890 
z"/>
<path fill="#3D414B" opacity="1.000000" stroke="none" 
	d="
M350.343018,217.206161 
	C349.329773,221.590500 347.719391,220.648529 346.185120,217.881134 
	C344.717041,215.233170 343.764526,212.231766 340.608246,210.460403 
	C339.556946,212.912247 341.686371,214.021347 342.000031,215.642502 
	C342.224121,216.800735 342.530029,218.021271 341.208405,218.702347 
	C339.918365,219.367157 338.900330,218.717590 338.318634,217.592545 
	C337.067444,215.172546 335.358398,213.229828 333.033875,211.796234 
	C332.319946,211.355942 331.448303,210.230850 331.951050,209.805222 
	C334.448303,207.690979 334.239532,205.308731 334.109009,202.303177 
	C334.021606,200.290390 336.739502,201.407761 338.103577,202.255920 
	C343.758606,205.772110 347.973175,210.517303 350.343018,217.206161 
z"/>
<path fill="#E8E9EA" opacity="1.000000" stroke="none" 
	d="
M313.135071,246.339569 
	C314.892914,245.790527 316.773438,245.456879 319.104095,246.416153 
	C317.698639,247.652802 316.347565,248.123322 314.477386,248.264252 
	C313.821381,247.679047 313.538116,247.147797 313.135071,246.339569 
z"/>
<path fill="#E8E9EA" opacity="1.000000" stroke="none" 
	d="
M299.016235,243.272156 
	C298.745697,243.507004 298.435272,243.494675 297.671722,243.591217 
	C297.283264,243.259567 297.191010,242.603500 297.442902,242.420135 
	C298.116455,241.929810 298.643311,242.354233 299.016235,243.272156 
z"/>
<path fill="#E8E9EA" opacity="1.000000" stroke="none" 
	d="
M307.872314,247.790192 
	C307.287048,247.968124 306.521210,247.892990 305.543274,247.602142 
	C306.142822,247.048508 306.941162,246.918686 307.872314,247.790192 
z"/>
<path fill="#E8E9EA" opacity="1.000000" stroke="none" 
	d="
M198.558594,255.384918 
	C199.306061,253.062790 200.495071,251.795425 202.716904,252.400711 
	C204.338272,252.842407 205.059341,254.146210 205.167221,255.794678 
	C205.324097,258.192352 204.686005,260.490082 202.060272,260.631073 
	C198.986450,260.796173 198.536697,258.212555 198.558594,255.384918 
z"/>
<path fill="#E8E9EA" opacity="1.000000" stroke="none" 
	d="
M258.432068,233.578979 
	C259.244446,233.309067 259.759186,233.071152 260.191162,233.175644 
	C263.090851,233.876953 264.969727,235.605469 264.323792,238.735550 
	C263.791718,241.314056 261.559509,241.548737 259.686523,240.476517 
	C257.015015,238.947174 255.454193,236.751038 258.432068,233.578979 
z"/>
</svg>